<?xml version="1.0" encoding="UTF-8"?>
<svg id="Layer_1" xmlns="http://www.w3.org/2000/svg" viewBox="0 0 22.12 46.06">
  <defs>
    <style>
      .cls-1 {
        fill: #3f5651;
      }

      .cls-1, .cls-2, .cls-3, .cls-4, .cls-5 {
        fill-rule: evenodd;
      }

      .cls-2 {
        fill: #010101;
      }

      .cls-3 {
        fill: #024337;
      }

      .cls-4 {
        fill: #abb671;
      }

      .cls-5 {
        fill: #688e72;
      }
    </style>
  </defs>
  <path class="cls-1" d="M9.12,31.72v13.64h3.84v-13.64h-3.84Z"/>
  <path class="cls-3" d="M9.12,31.72v5.65c1.12,0,2.03.91,2.03,2.02v5.97h1.81l.05-13.64h-3.89Z"/>
  <path class="cls-2" d="M1.88,44.67c-.37,0-.69.27-.69.64s.32.69.69.69l18.33.05h.06c.37,0,.64-.32.64-.69s-.27-.69-.64-.69H1.88Z"/>
  <path class="cls-4" d="M11.06,15.04c-.28,0-.56.15-.72.44l-5.11,8.9-2.45,4.26L.12,33.27c-.32.59.05,1.28.69,1.28h20.46c.64,0,1.07-.69.75-1.28l-2.72-4.64-2.4-4.26-5.12-8.9c-.16-.29-.44-.44-.72-.44Z"/>
  <path class="cls-5" d="M11.06,15.04c-.28,0-.56.15-.72.44l-5.11,8.9-2.45,4.26h10.87c1.38,0,2.61.69,3.3,1.92l1.92,3.99h2.4c.64,0,1.07-.69.75-1.28l-2.72-4.64-2.4-4.26-5.12-8.9c-.16-.29-.44-.44-.72-.44Z"/>
  <path class="cls-4" d="M11.06,10.13c-.28,0-.56.15-.72.44l-4.05,7.03-4,6.98c-.32.59.06,1.28.69,1.28h16.09c.69,0,1.07-.69.75-1.28l-4.05-6.98-4-7.03c-.16-.29-.44-.44-.72-.44Z"/>
  <path class="cls-5" d="M11.06,10.13c-.28,0-.56.15-.72.44l-4.05,7.03-1.44,2.5h6.92c1.39,0,2.66.75,3.36,1.92l2.18,3.83h1.76c.69,0,1.07-.69.75-1.28l-4.05-6.98-4-7.03c-.16-.29-.44-.44-.72-.44Z"/>
  <path class="cls-4" d="M11.06,4.97c-.28,0-.56.14-.72.44l-3.14,5.49-3.2,5.49c-.32.59.1,1.28.75,1.28h12.62c.64,0,1.01-.69.69-1.28l-3.14-5.49-3.14-5.49c-.16-.29-.44-.44-.72-.44Z"/>
  <path class="cls-5" d="M11.06,4.97c-.28,0-.56.14-.72.44l-3.14,5.49-.8,1.38h4.8c.8,0,1.6.43,2.02,1.17l1.71,2.93c.32.59.43.8.69,1.28h1.76c.64,0,1.01-.69.69-1.28l-2.34-4.1-.8-1.38-3.14-5.49c-.16-.29-.44-.44-.72-.44Z"/>
  <path class="cls-4" d="M11.06,0c-.28,0-.56.13-.72.4l-2.29,4.05-2.29,3.99c-.32.53.05,1.23.69,1.23h9.22c.64,0,1.01-.69.69-1.23l-2.29-3.99L11.78.4c-.16-.27-.44-.4-.72-.4Z"/>
</svg>