<?xml version="1.0" encoding="UTF-8"?>
<svg id="Layer_1" xmlns="http://www.w3.org/2000/svg" viewBox="0 0 45.34 46.03">
  <defs>
    <style>
      .cls-1 {
        fill: #3f5651;
      }

      .cls-1, .cls-2, .cls-3, .cls-4, .cls-5 {
        fill-rule: evenodd;
      }

      .cls-2 {
        fill: #58805d;
      }

      .cls-3 {
        fill: #010101;
      }

      .cls-4 {
        fill: #939a54;
      }

      .cls-5 {
        fill: #024337;
      }
    </style>
  </defs>
  <path class="cls-1" d="M36.43,18.75c-.38,0-1.16,2.08-1.21,2.45-.48,3.73-3.09,6.82-6.71,8.42-.03.02-.06.03-.09.03-.12,0-.21-.17-.12-.29.96-1.33,1.65-3.04,2.08-5.12.05-.37-.16-.69-.53-.8-.04,0-.08,0-.11,0-.33,0-.64.2-.69.54-.8,3.99-2.72,6.39-5.49,6.82-.1,0-.21-.11-.21-.21v-7.67c0-.37-.27-.69-.64-.69-.43,0-.75.32-.75.69v7.67c0,.1-.05.21-.16.21-2.77-.43-4.69-2.82-5.49-6.82-.05-.34-.35-.54-.69-.54-.04,0-.08,0-.12,0-.37.1-.59.43-.53.8.37,2.08,1.12,3.78,2.08,5.12.09.13,0,.29-.13.29-.03,0-.06,0-.09-.03-3.62-1.6-6.23-4.69-6.71-8.42-.05-.32-.48-2.18-.85-2.18s-.53,1.86-.53,2.29v.05c.75,5.7,5.81,10.07,12.2,10.76.1,0,.16.11.16.16v13.05h3.2v-13.05c0-.11.06-.16.16-.16,6.34-.75,11.4-5.11,12.09-10.76.05-.37.27-2.61-.11-2.61h-.01Z"/>
  <path class="cls-3" d="M13.64,44.65c-.37,0-.64.32-.64.69s.27.69.64.69h18.11c.37,0,.69-.32.69-.69s-.32-.69-.69-.69H13.64Z"/>
  <path class="cls-5" d="M36.43,18.75c-.38,0-1.16,2.08-1.21,2.45-.21,1.71-.85,3.25-1.86,4.58.43.27.91.53,1.28.59,1.01-1.44,1.71-3.14,1.92-5.01.05-.37.27-2.61-.11-2.61h-.01Z"/>
  <path class="cls-5" d="M9.27,19.02c-.37,0-.53,1.86-.53,2.29v.05c.27,1.81.91,3.52,1.97,5.01.37-.05.8-.37,1.23-.59-.96-1.39-1.6-2.93-1.81-4.58-.05-.32-.48-2.18-.85-2.18Z"/>
  <path class="cls-5" d="M29.72,23.44c-.33,0-.64.2-.69.54-.21.96-.48,1.81-.8,2.61.43.27.8.64,1.12.85.43-.91.75-1.97,1.01-3.2.05-.37-.16-.69-.53-.8-.04,0-.08,0-.11,0Z"/>
  <path class="cls-5" d="M22.64,22.22c-.37,0-.69.32-.69.69v3.89c.27-.16.48-.32.69-.32s.48.16.69.37v-3.94c0-.37-.32-.69-.69-.69Z"/>
  <path class="cls-5" d="M15.62,23.44s-.08,0-.12,0c-.37.1-.59.43-.53.8.21,1.17.53,2.24.96,3.2.37-.27.75-.64,1.12-.91-.32-.75-.59-1.6-.75-2.56-.05-.34-.35-.54-.69-.54Z"/>
  <path class="cls-4" d="M20.23,0s-.02,0-.04,0c-.85.05-1.49,1.92-2.29,1.97-.03,0-.05,0-.08,0-.75,0-1.72-1.4-2.48-1.4-.04,0-.08,0-.11.01-.8.16-1.23,2.08-1.97,2.29-.06.01-.11.02-.17.02-.74,0-1.8-1.07-2.51-1.07-.07,0-.13.01-.19.03-.75.27-.85,2.24-1.55,2.56-.11.05-.23.07-.36.07-.69,0-1.65-.59-2.31-.59-.14,0-.26.03-.37.09-.69.43-.32,2.34-.91,2.88-.23.18-.59.22-.97.22-.34,0-.71-.03-1.04-.03-.43,0-.79.05-.97.29-.53.64.59,2.24.32,2.98-.32.75-2.24,1.23-2.24,2.03s1.92,1.28,2.24,2.02c.27.75-.85,2.34-.32,2.98.18.24.55.29.97.29.33,0,.7-.03,1.04-.03.39,0,.74.04.97.22.59.53.21,2.45.91,2.88.1.07.23.09.37.09.65,0,1.61-.59,2.31-.59.13,0,.25.02.36.07.69.32.8,2.29,1.55,2.56.06.02.13.03.19.03.71,0,1.78-1.07,2.51-1.07.06,0,.11,0,.17.02.75.21,1.17,2.13,1.97,2.29.04,0,.07.01.11.01.76,0,1.72-1.4,2.48-1.4.02,0,.05,0,.08,0,.8.05,1.44,1.92,2.29,1.97h.04c.79,0,1.63-1.71,2.47-1.71.79,0,1.63,1.71,2.41,1.71h.04c.85-.05,1.49-1.92,2.29-1.97.02,0,.05,0,.08,0,.75,0,1.72,1.4,2.48,1.4.04,0,.08,0,.11-.01.8-.16,1.23-2.08,1.97-2.29.05-.02.11-.02.17-.02.73,0,1.8,1.07,2.51,1.07.07,0,.13-.01.2-.03.8-.27.85-2.24,1.54-2.56.11-.05.23-.07.36-.07.69,0,1.66.59,2.31.59.14,0,.26-.03.37-.09.69-.43.32-2.34.91-2.88.23-.18.59-.22.98-.22.34,0,.71.03,1.04.03.43,0,.79-.05.97-.29.53-.64-.59-2.24-.27-2.98.27-.75,2.18-1.23,2.18-2.02s-1.92-1.28-2.18-2.03c-.32-.75.8-2.34.27-2.98-.18-.24-.55-.29-.97-.29-.33,0-.7.03-1.04.03-.39,0-.75-.04-.98-.22-.59-.53-.21-2.45-.91-2.88-.1-.07-.23-.09-.37-.09-.65,0-1.61.59-2.31.59-.13,0-.25-.02-.36-.07-.69-.32-.75-2.29-1.54-2.56-.06-.02-.13-.03-.2-.03-.71,0-1.78,1.07-2.51,1.07-.06,0-.12,0-.17-.02-.75-.21-1.17-2.13-1.97-2.29-.04,0-.08-.01-.11-.01-.76,0-1.72,1.4-2.48,1.4-.03,0-.05,0-.08,0-.8-.06-1.44-1.92-2.29-1.97-.01,0-.02,0-.04,0-.79,0-1.63,1.71-2.41,1.71-.84,0-1.68-1.71-2.47-1.71Z"/>
  <path class="cls-2" d="M42.55,7.05c-.25,0-.52.02-.78.04-8.2,7.51-19.13,12.09-31.11,12.09-1.86,0-3.62-.11-5.38-.32h0c.11.75.11,1.6.53,1.86.1.07.23.09.37.09.67,0,1.66-.62,2.36-.62.11,0,.22.02.31.06.69.37.8,2.34,1.55,2.61.06.02.13.03.19.03.71,0,1.78-1.07,2.51-1.07.06,0,.11,0,.17.02.75.21,1.17,2.13,1.97,2.29.03,0,.07.01.11.01.76,0,1.73-1.45,2.48-1.45.02,0,.05,0,.07,0,.8.1,1.44,2.02,2.29,2.08.8,0,1.65-1.76,2.5-1.76.8,0,1.65,1.76,2.45,1.76.85-.05,1.49-1.97,2.29-2.08.02,0,.05,0,.07,0,.75,0,1.72,1.45,2.48,1.45.04,0,.07,0,.11-.01.8-.16,1.23-2.08,1.97-2.29.05-.02.11-.02.17-.02.73,0,1.8,1.07,2.51,1.07.07,0,.13-.01.2-.03.8-.27.85-2.24,1.54-2.61.09-.04.2-.06.31-.06.7,0,1.69.62,2.36.62.14,0,.26-.03.36-.09.69-.43.32-2.4.91-2.88.21-.17.55-.22.94-.22s.82.04,1.19.04c.4,0,.74-.05.91-.25.53-.69-.64-2.29-.37-3.04.32-.75,2.24-1.23,2.24-2.02s-1.92-1.28-2.24-2.03c-.27-.75.91-2.34.37-3.03-.17-.2-.52-.25-.92-.25Z"/>
</svg>