<?xml version="1.0" encoding="UTF-8"?>
<svg id="Layer_1" xmlns="http://www.w3.org/2000/svg" viewBox="0 0 44.33 46.03">
  <defs>
    <style>
      .cls-1 {
        fill: #3f5651;
      }

      .cls-1, .cls-2, .cls-3, .cls-4, .cls-5, .cls-6 {
        fill-rule: evenodd;
      }

      .cls-2 {
        fill: #58805d;
      }

      .cls-3 {
        fill: #425f46;
      }

      .cls-4 {
        fill: #010101;
      }

      .cls-5 {
        fill: #939a54;
      }

      .cls-6 {
        fill: #688e72;
      }
    </style>
  </defs>
  <path class="cls-2" d="M9.91,10.05c-3.36,0-6.07,2.72-6.07,6.02,0,.75.16,1.44.37,2.08-2.45.8-4.21,3.09-4.21,5.81,0,3.36,2.72,6.07,6.07,6.07,1.55,0,3.04-.64,4.1-1.65,1.07,1.01,2.5,1.65,4.1,1.65.43,0,.8-.05,1.17-.11,1.06-.21,1.97-.69,2.77-1.33,1.01.91,2.4,1.44,3.89,1.44,3.35,0,6.07-2.72,6.07-6.07,0-.59-.11-1.17-.27-1.76-.59-1.86-2.08-3.41-3.94-3.99.21-.64.37-1.39.37-2.08,0-2.98-2.13-5.49-5.01-5.97-.32-.11-.69-.11-1.07-.11-1.6,0-3.09.64-4.15,1.65-.75-.69-1.6-1.17-2.61-1.44-.48-.16-1.01-.22-1.6-.22Z"/>
  <path class="cls-1" d="M18.11,25.14l-1.44,20.19h10.71l-1.33-20.19h-7.94Z"/>
  <path class="cls-4" d="M13,44.64c-.43,0-.69.32-.69.69s.27.69.69.69h18.11c.37,0,.69-.32.69-.69s-.32-.69-.69-.69H13Z"/>
  <path class="cls-6" d="M17.31,0c-3.36,0-6.02,2.72-6.07,6.07,0,.59.11,1.17.27,1.76.05.11.05.21.1.32-2.45.75-4.21,3.04-4.21,5.75,0,3.3,2.61,5.97,5.91,6.07h.16c1.6,0,3.03-.59,4.1-1.6,1.07,1.01,2.5,1.6,4.1,1.6,1.49,0,2.88-.53,3.94-1.44.64.59,1.44,1.01,2.29,1.23.53.16,1.07.21,1.6.21.03,0,.07,0,.1,0,3.31,0,5.98-2.7,5.98-6.02,0-2.72-1.76-5.01-4.21-5.81.21-.64.37-1.33.37-2.08,0-.27,0-.53-.06-.85-.43-2.93-2.93-5.22-6.02-5.22-1.6,0-3.09.64-4.16,1.7-1.12-1.07-2.56-1.7-4.21-1.7Z"/>
  <path class="cls-3" d="M25.78,4.9c-2.5,0-4.8,1.07-6.45,2.82,2.88.48,5.01,2.98,5.01,5.97,0,.69-.16,1.44-.37,2.08,1.87.59,3.36,2.13,3.94,3.99.53.16,1.07.21,1.6.21.03,0,.07,0,.1,0,3.31,0,5.98-2.7,5.98-6.02,0-2.72-1.76-5.01-4.21-5.81.21-.64.37-1.33.37-2.08,0-.27,0-.53-.06-.85-.59.21-1.17.43-1.7.75-1.28-.75-2.72-1.07-4.21-1.07Z"/>
  <path class="cls-6" d="M19.34,7.72c-1.44,1.55-2.34,3.67-2.34,5.97,0,.16.05.37.05.53-1.97,1.33-3.3,3.41-3.73,5.75-.11.48-.16,1.01-.16,1.55,0,2.24.8,4.31,2.29,5.97,1.06-.21,1.97-.69,2.77-1.33,1.01.91,2.4,1.44,3.89,1.44,3.35,0,6.07-2.72,6.07-6.07,0-.59-.11-1.17-.27-1.76-.59-1.86-2.08-3.41-3.94-3.99.21-.64.37-1.39.37-2.08,0-2.98-2.13-5.49-5.01-5.97Z"/>
  <path class="cls-5" d="M26.1,7.62c-3.36,0-6.07,2.72-6.07,6.07,0,.69.11,1.39.37,2.08-2.45.75-4.21,3.04-4.21,5.75,0,3.36,2.66,6.07,6.02,6.07,1.6,0,3.04-.59,4.1-1.6,1.12,1.01,2.56,1.6,4.15,1.6,1.49,0,2.82-.53,3.89-1.44,1.07.91,2.4,1.44,3.89,1.44h.1c3.31,0,5.98-2.7,5.98-6.02,0-2.72-1.76-5.01-4.21-5.81.27-.64.37-1.33.37-2.08,0-3.35-2.66-6.07-6.02-6.07-1.65,0-3.09.64-4.21,1.71-1.07-1.07-2.56-1.71-4.15-1.71Z"/>
</svg>