<?xml version="1.0" encoding="UTF-8"?>
<svg id="Layer_1" xmlns="http://www.w3.org/2000/svg" viewBox="0 0 36.55 46.08">
  <defs>
    <style>
      .cls-1 {
        fill: #3f5651;
      }

      .cls-1, .cls-2, .cls-3, .cls-4, .cls-5 {
        fill-rule: evenodd;
      }

      .cls-2 {
        fill: #010101;
      }

      .cls-3 {
        fill: #939a54;
      }

      .cls-4 {
        fill: #024337;
      }

      .cls-5 {
        fill: #abb671;
      }
    </style>
  </defs>
  <path class="cls-1" d="M18.38,16.99c1.6,0,2.88,1.28,2.88,2.88v3.84c0,1.6-1.28,2.88-2.88,2.88s-2.88-1.28-2.88-2.88v-3.84c0-1.6,1.28-2.88,2.88-2.88ZM18.31,7.35h-.1c-3.83,0-6.87,3.2-6.87,7.03v9.11c0,2.93,1.81,5.43,4.37,6.5.32.1.53.43.53.75l-3.04,14.65h10.12l-2.98-14.65c0-.32.16-.64.48-.75,2.56-1.07,4.37-3.57,4.37-6.5v-9.17c0-3.86-3.09-6.98-6.88-6.98Z"/>
  <path class="cls-4" d="M20.19,7.62c1.76,1.28,2.93,3.36,2.93,5.7v3.57c-.64.69-1.33,1.33-2.08,1.92.11.32.21.69.21,1.07v3.84c0,.69-.27,1.33-.69,1.86h.43c.64,0,1.01.75.64,1.28-.75.91-1.76,1.65-2.88,2.13-.32.11-.53.43-.53.8l3.2,15.61h1.92l-2.98-14.65c0-.32.16-.64.48-.75,2.18-.91,3.83-2.82,4.26-5.17.05-.43.1-.85.1-1.33v-9.17c0-3.19-2.13-5.91-5.01-6.71Z"/>
  <path class="cls-4" d="M15.5,22c-1.33.48-2.72.91-4.15,1.12v.38c0,.75.11,1.38.27,2.02l4.58.05c-.43-.53-.69-1.17-.69-1.86v-1.71Z"/>
  <path class="cls-5" d="M18.33,0c-3.25,0-6.02,2.03-6.82,4.74-.16-.06-.27-.06-.37-.06-3.89,0-7.09,2.88-7.09,6.39v.64C1.7,12.73.05,14.97,0,17.53v.16c.1,3.14,2.98,5.65,6.45,5.65l23.6.05c3.41,0,6.23-2.34,6.45-5.43.06-.11.06-.27.06-.37,0-2.56-1.65-4.8-4.05-5.81.05-.21.05-.43.05-.64,0-3.52-3.14-6.39-7.08-6.39h-.32c-.85-2.72-3.57-4.74-6.82-4.74Z"/>
  <path class="cls-2" d="M9.7,44.7c-.37,0-.64.32-.64.69s.27.69.64.69h17.15c.37,0,.69-.32.69-.69s-.32-.69-.69-.69H9.7Z"/>
  <path class="cls-3" d="M28.34,5.28c-2.34,9.16-10.66,15.98-20.51,15.98-2.56,0-4.95-.48-7.19-1.28h0c1.01,1.97,3.25,3.36,5.81,3.36l23.6.05c3.41,0,6.23-2.34,6.45-5.43.06-.11.06-.27.06-.37,0-2.56-1.65-4.8-4.05-5.81.05-.21.05-.43.05-.64,0-2.61-1.7-4.85-4.21-5.86Z"/>
</svg>