<?xml version="1.0" encoding="UTF-8"?>
<svg id="Layer_1" xmlns="http://www.w3.org/2000/svg" viewBox="0 0 41.78 46.03">
  <defs>
    <style>
      .cls-1 {
        fill: #3f5651;
      }

      .cls-1, .cls-2, .cls-3, .cls-4, .cls-5 {
        fill-rule: evenodd;
      }

      .cls-2 {
        fill: #58805d;
      }

      .cls-3 {
        fill: #010101;
      }

      .cls-4 {
        fill: #939a54;
      }

      .cls-5 {
        fill: #024337;
      }
    </style>
  </defs>
  <path class="cls-1" d="M20.18,12.78c-.16,0-.32.08-.41.27-.48,1.07-.96,2.29-1.33,3.67-.48,1.6-.69,3.09-.8,4.37-.04.36-.36.61-.68.61-.06,0-.11,0-.17-.02-1.55-.53-2.98-1.76-4.31-3.41-1.39-1.71-3.09-2.82-4.21-4.15-.12-.13-.25-.19-.39-.19-.3,0-.56.28-.41.61.8,2.08,2.13,4.64,4.37,7.14,1.76,2.02,3.62,3.41,5.12,4.37.43.21.75.53,1.01.85,1.76,2.08,3.04,3.99,3.89,5.43.96,1.71,1.76,3.09,2.34,4.74.11.27,0,.59-.27.75-.91.69-2.03,1.6-3.09,2.82-1.54,1.7-2.56,3.41-3.14,4.69h3.67c.16-.59.53-1.81,1.65-2.88.32-.32.64-.53.96-.75.11-.08.23-.12.35-.12.34,0,.66.31.66.7-.05.64-.16,1.55-.32,3.09h9.11c-.48-2.5-1.33-5.65-2.98-9.11-.96-2.08-2.08-3.89-3.09-5.33-.22-.32-.16-.69.1-.91.75-.59,1.49-1.28,2.29-2.13,1.28-1.44,2.18-2.93,2.82-4.26.16-.32-.13-.65-.45-.65-.1,0-.21.03-.3.11-1.23,1.12-2.77,2.34-4.69,3.36-1.01.53-2.08.96-2.98,1.28-.08.03-.17.04-.25.04-.23,0-.44-.11-.55-.31-.8-1.33-1.7-3.09-2.34-5.27-1.01-3.41-1.01-6.55-.75-8.9.07-.33-.19-.53-.45-.53Z"/>
  <path class="cls-5" d="M12.58,18.43c.69,1.07,1.49,2.18,2.45,3.25,1.76,2.02,3.62,3.41,5.11,4.37.43.21.75.53,1.01.85,1.76,2.08,2.98,3.99,3.83,5.43,1.01,1.71,1.81,3.09,2.4,4.74.21.64.48,1.39.64,2.29.22,1.17.22,2.13.16,2.93-.05.64-.16,1.55-.32,3.09h5.91c-.48-2.5-1.33-5.65-2.98-9.11-.96-2.08-2.08-3.89-3.09-5.33-.22-.32-.16-.69.1-.91.75-.59,1.49-1.28,2.29-2.13.59-.64,1.07-1.33,1.55-1.97h0c-.32.16-.64.32-.96.53-1.07.53-2.08.96-2.98,1.28-.08.03-.17.04-.25.04-.23,0-.44-.11-.55-.31-.1-.16-.21-.37-.32-.59-.75.37-1.44.64-2.08.85-.08.03-.17.04-.25.04-.23,0-.44-.11-.55-.31-.8-1.33-1.7-3.09-2.34-5.27-.21-.64-.32-1.28-.48-1.87,0,.27-.06.53-.06.75-.04.36-.36.61-.68.61-.06,0-.11,0-.17-.02-.8-.27-1.55-.75-2.29-1.33,0,.27-.06.53-.06.75-.04.36-.36.61-.68.61-.06,0-.11,0-.17-.02-1.49-.53-2.88-1.71-4.21-3.25Z"/>
  <path class="cls-2" d="M33.45,18.46c-2,0-3.82,1.34-4.41,3.33-.13-.02-.27-.03-.4-.03-1.03,0-1.97.7-2.21,1.74-.27,1.17.48,2.34,1.65,2.66.15.03.3.04.45.04.43,0,.84-.11,1.2-.31.64.91,1.55,1.55,2.72,1.81.35.09.71.13,1.05.13.97,0,1.89-.31,2.68-.82.32.21.69.43,1.17.53.22.05.44.07.66.07,1.41,0,2.69-.99,3.01-2.42.37-1.65-.69-3.3-2.34-3.67-.19-.04-.38-.08-.58-.08-.09,0-.18,0-.27.02-.53-1.44-1.7-2.56-3.3-2.88-.36-.09-.72-.13-1.08-.13Z"/>
  <path class="cls-4" d="M14.29,0c-2.72,0-5.06,1.65-6.07,3.94-.16.43-.59.64-1.01.64-2.56,0-4.64,2.08-4.64,4.64,0,.37.05.75.11,1.07.1.48-.11,1.01-.59,1.23C.81,12.15-.1,13.48,0,15.02c.05,1.86,1.6,3.35,3.41,3.41.09,0,.17,0,.26,0,.76,0,1.51-.21,2.03-.6.16-.1.33-.16.51-.16s.35.05.5.16c.53.37,1.12.59,1.87.59.91,0,1.97-.22,2.61-.75.16-.13.36-.2.56-.2s.4.07.56.2c.64.53,1.22.75,2.13.75.75,0,1.44-.22,1.97-.59.16-.1.33-.16.5-.16s.35.05.51.16c.53.37,1.23.59,1.97.59.91,0,1.71-.16,2.34-.69.16-.13.36-.2.56-.2s.4.07.56.2c.57.48,1.32.7,2.17.7.09,0,.19,0,.28,0,1.87-.06,3.46-1.71,3.46-3.57.05-1.49-.85-2.77-2.13-3.36-.48-.21-.75-.75-.64-1.23.11-.32.11-.64.11-.96,0-2.56-2.08-4.64-4.64-4.64h-.11c-.43,0-.85-.27-1.01-.69-1.01-2.34-3.36-3.99-6.07-3.99Z"/>
  <path class="cls-3" d="M14.5,44.7c-.37,0-.69.27-.69.69,0,.37.32.64.69.64h26.64c.37,0,.64-.27.64-.64,0-.43-.27-.69-.69-.69H14.5Z"/>
  <path class="cls-2" d="M24.52,5.81c-3.73,6.02-10.39,10.02-18.01,10.02-2.29,0-4.48-.32-6.5-1.01v.22c.05,1.86,1.6,3.35,3.41,3.41.09,0,.17,0,.26,0,.76,0,1.51-.21,2.03-.6.16-.1.33-.16.51-.16s.35.05.5.16c.53.37,1.12.59,1.87.59.91,0,1.97-.22,2.61-.75.16-.13.36-.2.56-.2s.4.07.56.2c.64.53,1.22.75,2.13.75.75,0,1.44-.22,1.97-.59.16-.1.33-.16.5-.16s.35.05.51.16c.53.37,1.23.59,1.97.59.91,0,1.71-.16,2.34-.69.16-.13.36-.2.56-.2s.4.07.56.2c.57.48,1.32.7,2.17.7.09,0,.19,0,.28,0,1.87-.06,3.46-1.71,3.46-3.57.05-1.49-.85-2.77-2.13-3.36-.48-.21-.75-.75-.64-1.23.11-.32.11-.64.11-.96,0-1.39-.59-2.66-1.6-3.52Z"/>
</svg>