<?xml version="1.0" encoding="UTF-8"?>
<svg id="Layer_1" xmlns="http://www.w3.org/2000/svg" viewBox="0 0 23.65 46.03">
  <defs>
    <style>
      .cls-1 {
        fill: #3f5651;
      }

      .cls-1, .cls-2, .cls-3, .cls-4, .cls-5 {
        fill-rule: evenodd;
      }

      .cls-2 {
        fill: #58805d;
      }

      .cls-3 {
        fill: #010101;
      }

      .cls-4 {
        fill: #024337;
      }

      .cls-5 {
        fill: #abb671;
      }
    </style>
  </defs>
  <path class="cls-1" d="M9.54,32.5v12.89h4.64v-12.89h-4.64Z"/>
  <path class="cls-4" d="M9.54,32.5v4.15h.43c.07,0,.13,0,.19,0,.98,0,1.78.77,1.78,1.77v6.98h2.24v-12.89h-4.64Z"/>
  <path class="cls-3" d="M3.25,44.7c-.37,0-.69.27-.69.69,0,.37.32.64.69.64h17.15c.38,0,.69-.27.69-.64,0-.43-.32-.69-.69-.69H3.25Z"/>
  <path class="cls-5" d="M11.78,0C6.71,0,2.61,4.08,2.61,9.11c0,1.33.27,2.56.75,3.62.27.64.16,1.33-.32,1.81C1.17,16.62.05,19.34,0,22.32c-.06,6.5,5.17,11.88,11.67,11.99.03,0,.07,0,.1,0,6.56,0,11.89-5.25,11.89-11.83,0-3.09-1.23-5.91-3.14-8.04-.48-.48-.59-1.17-.37-1.76.48-1.12.75-2.35.75-3.57-.05-4.96-4.05-9.01-9-9.11h-.1Z"/>
  <path class="cls-2" d="M13.8.27h0c2.5,3.09,3.94,7.03,3.94,11.29,0,9.11-6.66,16.62-15.4,17.96,2.13,2.82,5.49,4.74,9.32,4.79.03,0,.07,0,.1,0,6.56,0,11.89-5.25,11.89-11.83,0-3.09-1.23-5.91-3.14-8.04-.48-.48-.59-1.17-.37-1.76.48-1.12.75-2.35.75-3.57-.05-4.31-3.04-7.88-7.08-8.85Z"/>
</svg>