<?xml version="1.0" encoding="UTF-8"?>
<svg id="Layer_1" xmlns="http://www.w3.org/2000/svg" viewBox="0 0 39.96 46.03">
  <defs>
    <style>
      .cls-1 {
        fill: #3f5651;
      }

      .cls-1, .cls-2, .cls-3, .cls-4, .cls-5, .cls-6 {
        fill-rule: evenodd;
      }

      .cls-2 {
        fill: #010101;
      }

      .cls-3 {
        fill: #939a54;
      }

      .cls-4 {
        fill: #024337;
      }

      .cls-5 {
        fill: #abb671;
      }

      .cls-6 {
        fill: #688e72;
      }
    </style>
  </defs>
  <path class="cls-1" d="M19.98,22.54c-2.5.27-3.67,19.13-3.67,22.8h7.35c0-3.67-1.17-22.54-3.62-22.8h-.05Z"/>
  <path class="cls-4" d="M22.54,30.95c-.69.21-1.49.37-2.45.43-.13,0-.27.01-.39.01-.86,0-1.62-.14-2.27-.33-.27,1.97-.48,3.99-.64,5.97.81.29,1.8.49,2.91.49.13,0,.26,0,.39,0,1.23-.06,2.29-.32,3.09-.69-.16-1.92-.37-3.94-.64-5.86Z"/>
  <path class="cls-2" d="M11.45,44.64c-.37,0-.69.32-.69.69s.32.69.69.69h17.05c.37,0,.69-.32.69-.69s-.32-.69-.69-.69H11.45Z"/>
  <path class="cls-3" d="M19.93,0c-2.56,0-4.69,4.1-4.69,9.22s2.13,9.22,4.69,9.22,4.74-4.15,4.74-9.22S22.54,0,19.93,0Z"/>
  <path class="cls-6" d="M8.9,6.39v8.2c0,6.07,4.96,11.03,11.08,11.03v-8.2c0-6.07-4.96-11.03-11.03-11.03h-.05Z"/>
  <path class="cls-6" d="M31.06,6.39c-6.13,0-11.08,4.95-11.08,11.03v8.2c6.13,0,11.08-4.95,11.08-11.03V6.39Z"/>
  <path class="cls-5" d="M33.73,13.97c-3.54,0-7.02,1.69-9.17,4.83l-4.58,6.77c1.91,1.29,4.08,1.91,6.22,1.91,3.54,0,7.02-1.69,9.17-4.83l4.58-6.77c-1.91-1.29-4.08-1.91-6.22-1.91Z"/>
  <path class="cls-5" d="M6.23,13.97c-2.15,0-4.31.62-6.23,1.91l4.64,6.77c2.12,3.15,5.61,4.83,9.15,4.83,2.14,0,4.31-.62,6.2-1.91l-4.58-6.77c-2.15-3.15-5.63-4.83-9.17-4.83Z"/>
</svg>