<?xml version="1.0" encoding="UTF-8"?>
<svg id="Layer_1" xmlns="http://www.w3.org/2000/svg" viewBox="0 0 35.16 45.34">
  <defs>
    <style>
      .cls-1 {
        fill: #3f5651;
      }

      .cls-1, .cls-2, .cls-3, .cls-4, .cls-5 {
        fill-rule: evenodd;
      }

      .cls-2 {
        fill: #425f46;
      }

      .cls-3 {
        fill: #010101;
      }

      .cls-4 {
        fill: #024337;
      }

      .cls-5 {
        fill: #688e72;
      }
    </style>
  </defs>
  <path class="cls-1" d="M15.24,32.13v12.41c0,.43.32.8.8.8h3.09c.48,0,.8-.37.8-.8v-12.41h-4.69Z"/>
  <path class="cls-5" d="M17.51,0c-2.98,0-5.49,1.96-6.38,4.64-.06.16-.22.32-.43.32-3.78,0-6.82,3.04-6.82,6.77,0,.27.05.64-.27.8-2.13,1.12-3.62,3.41-3.62,5.97s1.49,4.95,3.73,6.07c.27.16.21.48.21.75,0,3.73,3.04,6.82,6.82,6.82h13.59c3.78,0,6.82-2.98,6.82-6.77,0-.27-.05-.59.27-.75,2.18-1.12,3.73-3.41,3.73-6.02s-1.44-4.9-3.62-6.02c-.32-.16-.22-.53-.22-.8,0-3.73-3.04-6.82-6.82-6.82-.21,0-.37-.1-.43-.32-.91-2.72-3.46-4.64-6.45-4.64h-.12Z"/>
  <path class="cls-4" d="M15.24,32.07v2.98c.59,0,1.17-.1,1.71-.32.08-.04.17-.07.25-.07.3,0,.6.27.6.6v9.27c0,.43.32.8.8.8h.53c.48,0,.8-.37.8-.8v-12.46h-4.69Z"/>
  <path class="cls-2" d="M27.01,5.44v.91c0,12.2-9.86,22.06-22.06,22.06h-.27c1.12,2.18,3.41,3.73,6.07,3.73h13.59c3.78,0,6.82-2.98,6.82-6.77,0-.27-.05-.59.27-.75,2.18-1.12,3.73-3.41,3.73-6.02s-1.44-4.9-3.62-6.02c-.32-.16-.22-.53-.22-.8,0-2.88-1.81-5.33-4.31-6.34Z"/>
  <path class="cls-3" d="M8.79,43.95c-.37,0-.69.32-.69.69s.32.69.69.69h17.58c.37,0,.69-.32.69-.69s-.32-.69-.69-.69H8.79Z"/>
</svg>