<?xml version="1.0" encoding="UTF-8"?>
<svg id="Layer_1" xmlns="http://www.w3.org/2000/svg" viewBox="0 0 26.96 46.03">
  <defs>
    <style>
      .cls-1 {
        fill: #010101;
      }

      .cls-1, .cls-2, .cls-3 {
        fill-rule: evenodd;
      }

      .cls-2 {
        fill: #939a54;
      }

      .cls-3 {
        fill: #abb671;
      }
    </style>
  </defs>
  <path class="cls-3" d="M13.43,0c-1.44,0-2.61,1.17-2.61,2.61l-.05,15.08c0,.48-.44.92-.91.92-.05,0-.1,0-.15-.01l-1.97-.37c-.8-.11-1.55-.59-1.92-1.28-.27-.43-.43-.91-.43-1.44l-.11-6.66c0-1.44-1.17-2.61-2.66-2.61s-2.61,1.17-2.61,2.66v7.4c0,3.2,2.13,5.97,5.22,6.77l4.8.85c.43.05.75.43.75.91l-.05,20.51h5.33v-8.9c0-.43.32-.85.75-.91l4.95-.85c3.09-.85,5.22-3.62,5.22-6.77v-14.81c0-1.49-1.17-2.66-2.66-2.66s-2.61,1.17-2.61,2.66l-.11,14.01c0,.53-.16,1.01-.43,1.44-.43.69-1.12,1.12-1.92,1.28l-2.13.37c-.06.01-.11.02-.17.02-.47,0-.9-.4-.9-.92l.06-26.64c0-1.49-1.17-2.66-2.66-2.66Z"/>
  <path class="cls-1" d="M4.37,44.7c-.37,0-.69.27-.69.64,0,.43.32.69.69.69h18.22c.37,0,.64-.27.64-.69,0-.37-.27-.64-.64-.64H4.37Z"/>
  <path class="cls-2" d="M24.29,10.44c-1.44,0-2.61,1.17-2.61,2.66l-.11,14.01c0,.53-.16,1.01-.43,1.44-.43.69-1.12,1.12-1.92,1.28l-2.13.37c-.06.01-.11.02-.17.02-.47,0-.9-.4-.9-.92v-2.88c-1.44,2.08-3.19,3.89-5.27,5.33l-.05,12.95h5.33v-8.26c0-.43.32-.85.75-.91l4.95-.85c3.09-.85,5.22-3.62,5.22-6.77v-14.81c0-1.49-1.17-2.66-2.66-2.66Z"/>
</svg>