<?xml version="1.0" encoding="UTF-8"?>
<svg id="Layer_1" xmlns="http://www.w3.org/2000/svg" viewBox="0 0 35.96 46.03">
  <defs>
    <style>
      .cls-1 {
        fill: #3f5651;
      }

      .cls-1, .cls-2, .cls-3, .cls-4, .cls-5 {
        fill-rule: evenodd;
      }

      .cls-2 {
        fill: #58805d;
      }

      .cls-3 {
        fill: #010101;
      }

      .cls-4 {
        fill: #939a54;
      }

      .cls-5 {
        fill: #024337;
      }
    </style>
  </defs>
  <path class="cls-1" d="M14.12,8.1l-1.92,24.93c-.75-.43-1.6-1.07-2.45-1.92-1.28-1.33-1.92-2.77-2.24-3.62h-3.35c.75,1.55,1.44,3.67,3.51,5.81,1.49,1.49,2.98,2.4,4.26,3.04l-.69,9.01h13.91l-1.17-13.75c1.28-.64,2.77-1.49,4.21-2.98,2.13-2.13,2.77-4.31,3.51-5.81h-3.3c-.37.85-1.01,2.24-2.29,3.62-.8.85-1.65,1.44-2.4,1.86l-1.39-20.19h-8.2Z"/>
  <path class="cls-1" d="M14.12,8.1l-1.92,24.93-.27,3.3-.69,9.01h13.91l-1.17-13.75-.27-3.3-1.39-20.19h-8.2Z"/>
  <path class="cls-5" d="M14.12,8.1l-.64,8.42c3.35,0,6.07.21,6.39,6.02l.37,5.75.27,3.3,1.17,13.75h3.46l-1.17-13.75-.27-3.3-.8-11.77-.59-8.42h-8.2Z"/>
  <path class="cls-3" d="M6.82,44.65c-.37,0-.69.32-.69.69s.32.69.69.69h22.75c.38,0,.64-.32.64-.69s-.27-.69-.64-.69H6.82Z"/>
  <path class="cls-4" d="M18.16,0c-1.66,0-3.04,1.15-3.46,2.66-.05-.05-.1-.05-.21-.05-2.02,0-3.67,1.65-3.67,3.68v.32c-1.23.59-2.08,1.81-2.08,3.3v.1c.05,1.76,1.55,3.2,3.36,3.2h12.31s.07,0,.1,0c1.71,0,3.15-1.36,3.31-3.04v-.27c0-1.44-.85-2.66-2.13-3.25,0-.11.05-.27.05-.37,0-2.03-1.65-3.62-3.73-3.62h-.16c-.43-1.54-1.86-2.66-3.57-2.66h-.11Z"/>
  <path class="cls-4" d="M6.82,19.55c-1.22,0-2.24.8-2.56,1.92h-.1c-1.49,0-2.66,1.17-2.66,2.56,0,.1,0,.21.05.27-.91.43-1.55,1.33-1.55,2.34v.05c.06,1.28,1.12,2.29,2.4,2.29l8.79.06c1.23,0,2.29-.96,2.4-2.24v-.16c0-1.01-.59-1.92-1.49-2.29v-.27c0-1.44-1.17-2.61-2.61-2.61h-.16c-.27-1.07-1.28-1.92-2.5-1.92Z"/>
  <path class="cls-4" d="M29.19,14.86c-1.17,0-2.24.8-2.5,1.92h-.16c-1.44,0-2.61,1.12-2.61,2.56v.27c-.91.37-1.49,1.28-1.49,2.34v.05c0,1.28,1.07,2.29,2.34,2.29h8.79c1.28,0,2.34-.96,2.4-2.18v-.16c0-1.01-.59-1.92-1.49-2.34,0-.05.05-.16.05-.27,0-1.38-1.17-2.56-2.66-2.56h-.1c-.32-1.12-1.33-1.92-2.56-1.92Z"/>
  <path class="cls-2" d="M24.99,4.1c-3.25,4.05-8.2,6.66-13.8,6.66-.8,0-1.6-.06-2.4-.16h0c.32,1.49,1.71,2.61,3.3,2.61h12.31s.07,0,.1,0c1.71,0,3.15-1.36,3.31-3.04v-.27c0-1.44-.85-2.66-2.13-3.25,0-.11.05-.27.05-.37,0-.8-.32-1.55-.75-2.19Z"/>
  <path class="cls-5" d="M7.51,27.54c-.91.43-1.86.8-2.88,1.07h.06c.69,1.6,2.24,2.56,3.94,2.61h1.22q-.05-.06-.1-.11c-1.28-1.33-1.92-2.72-2.24-3.57Z"/>
  <path class="cls-5" d="M30.26,22.8c-.75.37-1.49.69-2.29.96-.38.75-.96,1.65-1.76,2.5l1.44.05c1.49,0,2.88-.91,3.46-2.24.21-.48.37-.91.59-1.28h-1.44Z"/>
  <path class="cls-2" d="M34.15,18.12c-3.09,2.77-7.14,4.53-11.61,4.53.32.96,1.23,1.65,2.24,1.65h8.79c1.28,0,2.34-.96,2.4-2.18v-.16c0-1.01-.59-1.92-1.49-2.34,0-.05.05-.16.05-.27,0-.43-.16-.85-.37-1.22Z"/>
  <path class="cls-2" d="M11.67,22.59c-3.09,2.77-7.19,4.42-11.61,4.42.16,1.12,1.17,1.97,2.34,1.97l8.79.06c1.23,0,2.29-.96,2.4-2.24v-.16c0-1.01-.59-1.92-1.49-2.29v-.27c0-.53-.16-1.07-.43-1.49Z"/>
</svg>