<?xml version="1.0" encoding="UTF-8"?>
<svg id="Layer_1" xmlns="http://www.w3.org/2000/svg" viewBox="0 0 42.97 46.03">
  <defs>
    <style>
      .cls-1 {
        fill: #3f5651;
      }

      .cls-1, .cls-2, .cls-3, .cls-4, .cls-5 {
        fill-rule: evenodd;
      }

      .cls-2 {
        fill: #58805d;
      }

      .cls-3 {
        fill: #425f46;
      }

      .cls-4 {
        fill: #010101;
      }

      .cls-5 {
        fill: #024337;
      }
    </style>
  </defs>
  <path class="cls-1" d="M30.65,19.44c-.37,0-.64.32-.64.69v4.85c0,.75-.64,1.39-1.39,1.39h-4.79c-.11,0-.21-.05-.32-.1q-.05-.06-.11-.06t-.05-.05c-.11-.16-.21-.32-.21-.48v-5.11h-3.62v24.77h3.62v-14.7c0-.37.32-.69.69-.69h5.65c.69,0,1.39-.16,1.92-.48.11-.05.16-.1.27-.1.06-.06.16-.11.22-.16.05-.05.1-.05.1-.11.8-.64,1.49-1.6,1.6-2.82v-.16c0-.06,0-.11.05-.16v-5.81c0-.37-.32-.69-.69-.69h-2.29Z"/>
  <path class="cls-5" d="M19.52,20.67v3.46c.53,0,1.17.16,1.49.48.16.16.48.59.43,1.44v.16c0,1.01.53,1.81,1.87,1.87h3.62c.75,0,1.39-.64,1.39-1.39v-.32h-4.48c-.11,0-.21-.05-.32-.1q-.05-.06-.11-.06t-.05-.05c-.11-.16-.21-.32-.21-.48v-5.01h-3.62Z"/>
  <path class="cls-5" d="M30.65,19.44c-.37,0-.64.32-.64.69v3.09c.48,0,1.01.21,1.33.53.37.37.59.85.59,1.38v2.4c0,.69-.21,1.33-.53,1.92.11-.05.16-.1.27-.1.06-.06.16-.11.22-.16.05-.05.1-.05.1-.11h.06c.8-.64,1.49-1.76,1.54-2.98,0-.06,0-.11.05-.16v-5.81c0-.37-.32-.69-.69-.69h-2.29Z"/>
  <path class="cls-5" d="M23.14,38.78c-.91,0-1.71.75-1.71,1.71v4.85h1.71v-6.55Z"/>
  <path class="cls-4" d="M12.43,44.64c-.37,0-.69.32-.69.69s.32.69.69.69h18.33c.37,0,.69-.32.69-.69s-.32-.69-.69-.69H12.43Z"/>
  <path class="cls-2" d="M21.49,0C10.35,0,1.19,8.63.02,19.71c-.16,1.33.85,2.45,2.18,2.45h38.57c1.28,0,2.34-1.12,2.19-2.45C41.73,8.63,32.62,0,21.49,0Z"/>
  <path class="cls-3" d="M36.94,6.66c-6.93,7.24-16.67,11.77-27.49,11.77-3.09,0-6.13-.37-9.06-1.07-.16.75-.32,1.54-.37,2.34-.16,1.33.85,2.45,2.18,2.45h38.57c1.28,0,2.34-1.12,2.19-2.45-.53-5.06-2.77-9.64-6.02-13.05Z"/>
</svg>