<?xml version="1.0" encoding="UTF-8"?>
<svg id="Layer_1" xmlns="http://www.w3.org/2000/svg" viewBox="0 0 34.35 46.03">
  <defs>
    <style>
      .cls-1 {
        fill: #3f5651;
      }

      .cls-1, .cls-2, .cls-3, .cls-4, .cls-5 {
        fill-rule: evenodd;
      }

      .cls-2 {
        fill: #010101;
      }

      .cls-3 {
        fill: #024337;
      }

      .cls-4 {
        fill: #abb671;
      }

      .cls-5 {
        fill: #688e72;
      }
    </style>
  </defs>
  <path class="cls-1" d="M14.71,27.44v17.95h4.9v-17.95h-4.9Z"/>
  <path class="cls-3" d="M17.43,27.44v3.89c-.48-.32-1.07-.53-1.7-.53-.38,0-.69.05-1.01.16v5.91c.32.11.64.16,1.01.16h.21s.06,0,.09,0c.76,0,1.4.62,1.4,1.39v6.98h2.18v-17.95h-2.18Z"/>
  <path class="cls-2" d="M8.1,44.7c-.37,0-.69.27-.69.69,0,.37.32.64.69.64h18.11c.43,0,.69-.27.69-.64,0-.43-.27-.69-.69-.69H8.1Z"/>
  <path class="cls-4" d="M17.11,0c-1.07,0-2.02.53-2.56,1.33-.1.1-.23.16-.35.16-.07,0-.13-.02-.19-.06-.51-.37-1.13-.57-1.75-.57-.36,0-.72.07-1.07.2-1.01.37-1.7,1.17-2.02,2.13-.05.16-.21.27-.43.27-.25-.07-.52-.11-.78-.11-.69,0-1.41.25-1.99.75-.85.69-1.23,1.65-1.17,2.66.05.16-.11.37-.27.37-1.01.1-1.92.64-2.45,1.54-.53.96-.53,2.03-.16,2.93.11.16,0,.37-.16.43-.85.43-1.55,1.28-1.71,2.29-.21,1.07.16,2.08.85,2.77.1.16.1.37,0,.53-.69.69-1.07,1.71-.85,2.72.16,1.07.85,1.87,1.76,2.29.16.11.27.32.16.48-.37.91-.37,1.97.16,2.88.53.91,1.44,1.49,2.45,1.55.16.05.32.21.32.37-.05,1.01.32,1.97,1.12,2.66.58.5,1.29.75,2.01.75.28,0,.55-.04.82-.11.04,0,.07-.01.1-.01.16,0,.28.1.32.28.27.91,1.01,1.7,1.97,2.08.37.14.74.2,1.11.2.65,0,1.28-.2,1.82-.57.06-.04.11-.06.17-.06.1,0,.2.06.31.16.59.8,1.49,1.28,2.56,1.28s2.02-.48,2.61-1.28c.07-.1.18-.16.3-.16.06,0,.13.02.18.06.52.35,1.16.54,1.82.54.35,0,.71-.06,1.06-.17.96-.37,1.71-1.23,1.97-2.13.04-.18.16-.28.32-.28.03,0,.07,0,.1.01.26.06.52.09.78.09.71,0,1.4-.22,1.99-.73.85-.69,1.23-1.7,1.17-2.66-.06-.21.1-.37.32-.37.96-.11,1.87-.69,2.4-1.6.53-.91.53-1.97.16-2.88-.11-.16,0-.37.16-.48.85-.43,1.54-1.23,1.76-2.29.16-1.01-.21-2.03-.91-2.77-.1-.11-.1-.32,0-.48.69-.69,1.07-1.71.85-2.72-.16-1.06-.85-1.92-1.76-2.34-.16-.05-.21-.27-.16-.43.38-.91.38-1.97-.16-2.88-.53-.91-1.44-1.49-2.45-1.6-.16,0-.32-.16-.32-.37.11-.96-.32-1.97-1.12-2.61-.58-.5-1.29-.75-2.01-.75-.28,0-.55.04-.82.11-.21,0-.37-.11-.43-.27-.27-.96-1.01-1.76-1.97-2.08-.38-.14-.76-.2-1.13-.2-.64,0-1.24.19-1.75.52-.07.05-.15.08-.24.08-.1,0-.21-.04-.29-.13-.53-.8-1.49-1.33-2.56-1.33Z"/>
  <path class="cls-5" d="M26.91,3.35h0c.75,2.08,1.12,4.26,1.12,6.55,0,10.97-8.9,19.92-19.92,19.92-.96,0-1.92-.1-2.88-.21h0c.21.32.48.69.8.96.58.5,1.29.75,2.01.75.28,0,.55-.04.82-.11.04,0,.07-.01.1-.01.16,0,.28.1.32.28.27.91,1.01,1.7,1.97,2.08.37.14.74.2,1.11.2.65,0,1.28-.2,1.82-.57.06-.04.11-.06.17-.06.1,0,.2.06.31.16.59.8,1.49,1.28,2.56,1.28s2.02-.48,2.61-1.28c.07-.1.18-.16.3-.16.06,0,.13.02.18.06.52.35,1.16.54,1.82.54.35,0,.71-.06,1.06-.17.96-.37,1.71-1.23,1.97-2.13.04-.18.16-.28.32-.28.03,0,.07,0,.1.01.26.06.52.09.78.09.71,0,1.4-.22,1.99-.73.85-.69,1.23-1.7,1.17-2.66-.06-.21.1-.37.32-.37.96-.11,1.87-.69,2.4-1.6.53-.91.53-1.97.16-2.88-.11-.16,0-.37.16-.48.85-.43,1.54-1.23,1.76-2.29.16-1.01-.21-2.03-.91-2.77-.1-.11-.1-.32,0-.48.69-.69,1.07-1.71.85-2.72-.16-1.06-.85-1.92-1.76-2.34-.16-.05-.21-.27-.16-.43.38-.91.38-1.97-.16-2.88-.53-.91-1.44-1.49-2.45-1.6-.16,0-.32-.16-.32-.37.11-.96-.32-1.97-1.12-2.61-.43-.37-.91-.59-1.39-.69Z"/>
</svg>