<?xml version="1.0" encoding="UTF-8"?>
<svg id="Layer_1" xmlns="http://www.w3.org/2000/svg" viewBox="0 0 34.18 46.03">
  <defs>
    <style>
      .cls-1 {
        fill: #425f46;
      }

      .cls-1, .cls-2, .cls-3 {
        fill-rule: evenodd;
      }

      .cls-2 {
        fill: #010101;
      }

      .cls-3 {
        fill: #024337;
      }
    </style>
  </defs>
  <path class="cls-1" d="M18.03,0s-.07,0-.1,0c-.37.06-.59.37-.53.75.16,1.01.64,2.82,2.08,4.48.05.1.16.16.21.21,1.17,1.33,2.77,2.18,3.89,2.56.16.05.21.27.05.43-.05,0-.11.06-.16.11-2.13,1.55-4.42,2.88-6.82,3.89-.03.03-.05.04-.08.04-.03,0-.06-.01-.08-.04-.53-.32-1.07-.64-1.6-1.01-.05-.05-.1-.16-.05-.21.05-.16.16-.32.21-.53.96-2.29-.43-4.85-1.39-7.56-.32-.75-.64-1.6-.69-1.81,0-.37-.32-.64-.69-.64-1.17.21-.48,1.28.1,2.98.64,1.6,1.55,3.99,1.65,5.11.06.48-.05,1.01-.21,1.39-.07.14-.21.24-.35.24-.07,0-.13-.02-.19-.08C9.78,7.73,6.59,4.7,3.92,1.23c-.15-.19-.34-.28-.52-.28-.48,0-.92.54-.54,1.08,1.28,1.7,2.72,3.3,4.26,4.79.05.06.05.22-.06.27-1.74,1.18-3.88,1.81-6.03,1.81-.09,0-.17,0-.26,0-.02,0-.03,0-.05,0-.81,0-.84,1.28.05,1.33h.43c2.5,0,4.95-.8,6.92-2.24.03-.03.07-.04.12-.04.04,0,.1.01.15.04,1.6,1.49,3.3,2.88,5.11,4.1.75.53,1.55,1.07,2.35,1.55.05,0,.1.05.05.16l-.64,9.17c0,.07-.08.15-.16.15-.04,0-.07-.01-.1-.04-2.13-2.13-5.65-4.95-8.58-6.71-.05-.06-.11-.21,0-.27.37-.53.8-.96,1.28-1.39.8-.64,1.81-1.12,2.82-1.38.32-.11.59-.43.53-.8-.09-.31-.37-.56-.69-.56-.06,0-.11,0-.17.02-1.23.32-2.4.91-3.36,1.71-.64.48-1.17,1.07-1.6,1.7-.04.04-.13.08-.22.08-.04,0-.07,0-.1-.02-1.28-.75-2.61-1.44-4-2.08-.08-.04-.17-.06-.27-.06-.26,0-.52.16-.64.43-.11.32.05.75.37.85,2.93,1.33,5.7,2.98,8.26,4.85.06.05.06.16,0,.21-1.7,1.23-3.04,2.98-3.67,4.96-.17.54.26.93.67.93.24,0,.49-.13.6-.45.59-1.87,1.81-3.46,3.46-4.53.04-.02.11-.03.17-.03.09,0,.19.03.25.09,2.13,1.65,3.78,3.25,4.69,4.21.1.11.27.21.27.43-.11,2.66-1.65,16.46-1.97,19.45-.05.32.22.64.59.64h5.65c.32,0,.59-.32.59-.64-.48-4.42-1.81-16.57-2.34-21.36,0-.32.11-.59.32-.8.69-.69,1.76-1.49,3.14-2.13.05-.01.1-.02.15-.02.14,0,.25.06.33.18.43.69,1.01,1.28,1.6,1.81,1.55,1.23,3.14,1.6,4.26,1.65.03,0,.06,0,.08,0,.34,0,.66-.3.66-.65,0-.37-.32-.64-.64-.69-1.33-.05-3.57-.96-4.64-2.56-.05-.11,0-.27.1-.32.68-.13,1.34-.2,2-.2.43,0,.87.03,1.31.09.03,0,.06,0,.08,0,.34,0,.67-.3.72-.65,0-.37-.27-.69-.64-.69-.45-.07-.91-.1-1.38-.1-2.72,0-5.69,1.13-7.46,2.72-.04.02-.08.03-.1.03-.04,0-.06-.03-.06-.09l-.32-7.14c0-.05.05-.1.1-.16,1.28-.53,2.5-1.17,3.73-1.87.02-.02.05-.03.09-.03.05,0,.09.03.13.09,1.39,1.39,2.98,2.56,4.69,3.52,2.35,1.33,4.85,2.18,7.51,2.61.03,0,.07,0,.1,0,.34,0,.65-.25.7-.65,0-.32-.27-.64-.64-.69-1.6-.27-3.14-.69-4.69-1.33-.1-.06-.1-.21,0-.32,1.44-.69,2.61-1.86,3.46-3.2.3-.56-.13-1.07-.6-1.07-.2,0-.41.09-.57.32-.91,1.6-2.45,2.77-4.21,3.3-.02,0-.04.01-.06.01-.13,0-.22-.12-.31-.17-1.49-.85-2.88-1.87-4.1-3.04-.1-.06-.1-.22,0-.27,3.2-2.08,6.07-4.69,8.47-7.67.39-.51-.06-1.11-.55-1.11-.18,0-.36.07-.51.25-1.33,1.71-2.82,3.25-4.42,4.64-.05.06-.16.06-.21.06-.85-.16-2.5-.64-3.99-1.92.59-.37,1.22-.85,1.81-1.49.64-.8,1.12-1.71,1.38-2.66.11-.37-.1-.75-.48-.85-.07-.02-.13-.03-.19-.03-.3,0-.56.2-.61.51-.32,1.33-1.44,2.72-2.56,3.35-.04.02-.09.02-.14.02-.13,0-.27-.05-.34-.13-.91-1.28-1.28-2.56-1.38-3.3-.05-.29-.36-.54-.7-.54Z"/>
  <path class="cls-3" d="M17.13,13.7c-.53.75-.75,1.6-.75,2.45v3.83c0,.39.31.66.64.66.13,0,.25-.04.37-.13l-.27-6.82Z"/>
  <path class="cls-3" d="M20.18,20.55s-.08,0-.12.02c-1.44.64-2.5,1.44-3.2,2.13-.48.37-.37,1.17-.32,1.55v.05l.91,20.62,1.39-.05h0c.05.16-.05.37-.16.48h.69c.32,0,.59-.32.59-.64l-1.7-15.4-.64-5.97c0-.32.11-.59.32-.8.59-.59,1.44-1.28,2.5-1.81-.04-.12-.14-.18-.25-.18Z"/>
  <path class="cls-2" d="M6.91,44.65c-.38,0-.64.27-.64.64s.27.69.64.69l19.28.05c.37,0,.64-.32.64-.69s-.27-.69-.64-.69H6.91Z"/>
</svg>