<?xml version="1.0" encoding="UTF-8"?>
<svg id="Layer_1" xmlns="http://www.w3.org/2000/svg" viewBox="0 0 36.39 46.08">
  <defs>
    <style>
      .cls-1 {
        fill: #3f5651;
      }

      .cls-1, .cls-2, .cls-3, .cls-4, .cls-5 {
        fill-rule: evenodd;
      }

      .cls-2 {
        fill: #58805d;
      }

      .cls-3 {
        fill: #010101;
      }

      .cls-4 {
        fill: #024337;
      }

      .cls-5 {
        fill: #688e72;
      }
    </style>
  </defs>
  <path class="cls-1" d="M16.46,12.73v23.49c0,.43-.37.75-.8.75h-6.5c-.75,0-1.39-.59-1.39-1.33v-6.98c0-.37-.27-.69-.69-.69h-2.24c-.43,0-.69.32-.69.69v7.78c0,2.34,1.86,4.21,4.15,4.21h7.35c.43,0,.8.32.8.75v4h3.62v-7.62c0-.43.37-.75.8-.75l7.3-.05c2.29,0,4.15-1.87,4.15-4.16v-7.78c0-.43-.27-.69-.69-.69h-2.24c-.43,0-.69.27-.69.69v6.93c0,.75-.64,1.38-1.39,1.38h-6.45c-.43,0-.8-.37-.8-.8V12.73h-3.62Z"/>
  <path class="cls-4" d="M4.85,27.97c-.43,0-.69.32-.69.69v4.69h.16c.91,0,1.65.75,1.65,1.71v.43c0,1.81,1.49,3.36,3.36,3.36h3.46c1.01,0,1.81-.85,1.81-1.86h-5.43c-.75,0-1.39-.59-1.39-1.33v-6.98c0-.37-.27-.69-.69-.69h-2.24Z"/>
  <path class="cls-4" d="M16.46,12.73v3.04c1.01,0,1.81.8,1.81,1.81v16.83c0,.43.37.75.8.75h5.97c1.01,0,1.81-.8,1.81-1.81h-5.97c-.43,0-.8-.37-.8-.8V12.73h-3.62Z"/>
  <path class="cls-4" d="M20.09,38.84c-.96,0-1.81.8-1.81,1.81v4.74h1.81v-6.55Z"/>
  <path class="cls-4" d="M29.41,24.35c-.43,0-.69.27-.69.69v4.05c1.01,0,1.81.8,1.81,1.81v3.73c0,.69-.16,1.33-.43,1.92,1.33-.69,2.24-2.13,2.24-3.73v-7.78c0-.43-.27-.69-.69-.69h-2.24Z"/>
  <path class="cls-3" d="M8.95,44.7c-.37,0-.69.32-.69.69s.32.69.69.69h18.54c.37,0,.64-.32.64-.69s-.27-.69-.64-.69H8.95Z"/>
  <path class="cls-5" d="M18.28,0c-3.68,0-6.61,2.88-6.61,6.39v6.23c0,1.17,1.01,2.13,2.24,2.13,1.07,0,1.92-.69,2.18-1.65.27.96,1.12,1.65,2.19,1.65s1.92-.69,2.18-1.65c.21.96,1.12,1.65,2.18,1.65,1.23,0,2.24-.96,2.24-2.13v-6.23c0-3.52-2.98-6.39-6.6-6.39Z"/>
  <path class="cls-5" d="M30.53,14.38c-3.2,0-5.86,2.61-5.86,5.86v5.7c0,1.07.91,1.97,2.03,1.97.91,0,1.7-.64,1.92-1.49.21.85,1.01,1.49,1.92,1.49.96,0,1.76-.64,1.97-1.49.21.85.96,1.49,1.92,1.49,1.12,0,1.97-.91,1.97-1.97v-5.7c0-3.25-2.61-5.86-5.86-5.86Z"/>
  <path class="cls-5" d="M5.97,18.65c-3.3,0-5.97,2.66-5.97,5.97v5.81c0,1.17.91,2.08,2.03,2.08.96,0,1.76-.69,1.97-1.55.21.85,1.01,1.55,1.97,1.55s1.76-.69,1.97-1.55c.27.85,1.07,1.55,2.02,1.55,1.12,0,2.02-.91,2.02-2.08v-5.81c0-3.3-2.72-5.97-6.02-5.97Z"/>
  <path class="cls-2" d="M24.61,4.74c-2.77,4.42-7.46,7.46-12.94,7.94.05,1.17,1.01,2.08,2.24,2.08,1.07,0,1.92-.69,2.18-1.65.27.96,1.12,1.65,2.19,1.65s1.92-.69,2.18-1.65c.21.96,1.12,1.65,2.18,1.65,1.23,0,2.24-.96,2.24-2.13v-6.23c0-.53-.1-1.12-.27-1.65Z"/>
  <path class="cls-2" d="M36.07,18.33c-2.61,3.73-6.66,6.39-11.4,7.09v.53c0,1.07.91,1.97,2.03,1.97.91,0,1.7-.64,1.92-1.49.21.85,1.01,1.49,1.92,1.49.96,0,1.76-.64,1.97-1.49.21.85.96,1.49,1.92,1.49,1.12,0,1.97-.91,1.97-1.97v-5.7c0-.69-.11-1.33-.32-1.92Z"/>
  <path class="cls-2" d="M11.99,24.29c-3.04,3.25-7.24,5.33-11.99,5.49v.64c0,1.17.91,2.08,2.03,2.08.96,0,1.76-.69,1.97-1.55.21.85,1.01,1.55,1.97,1.55s1.76-.69,1.97-1.55c.27.85,1.07,1.55,2.02,1.55,1.12,0,2.02-.91,2.02-2.08v-6.13Z"/>
</svg>