<?xml version="1.0" encoding="UTF-8"?>
<svg id="Layer_1" xmlns="http://www.w3.org/2000/svg" viewBox="0 0 38.76 33.35">
  <defs>
    <style>
      .cls-1 {
        fill: #425f46;
      }

      .cls-1, .cls-2, .cls-3, .cls-4, .cls-5 {
        fill-rule: evenodd;
      }

      .cls-2 {
        fill: #010101;
      }

      .cls-3 {
        fill: #939a54;
      }

      .cls-4 {
        fill: #024337;
      }

      .cls-5 {
        fill: #688e72;
      }
    </style>
  </defs>
  <path class="cls-1" d="M16.44,21.79c-.37,0-.69.43-.59.8l.64,2.24c.11.27.32.48.59.48h4.31c.27,0,.53-.21.59-.48l.64-2.24c.11-.37-.16-.8-.59-.8h-5.59Z"/>
  <path class="cls-3" d="M10.3,24.82c-2.67,0-5.18,1.25-6.86,3.6L.03,33.1c-.08.12,0,.25.11.25.03,0,.07-.01.1-.03,2.45-1.28,5.49-2.61,9.06-3.73,3.73-1.17,7.19-1.81,10.02-2.13-2.02-.69-4.05-1.39-6.07-2.13-.98-.34-1.98-.51-2.95-.51Z"/>
  <path class="cls-3" d="M25.23,13.83s-.04,0-.05.02l-4.9,3.57c-3.14,2.29-4.37,6.13-3.04,9.86.69,2.02,1.39,4.05,2.08,6.07.32-2.82.96-6.29,2.13-10.07,1.12-3.73,2.56-6.82,3.83-9.32.04-.08,0-.13-.06-.13Z"/>
  <path class="cls-3" d="M17.56,8.2c-.37,0-.64.37-.59.75l.48,2.61c.06.27.27.48.59.48h2.4c.32,0,.59-.21.64-.48l.43-2.61c.05-.37-.21-.75-.59-.75h-3.36Z"/>
  <path class="cls-1" d="M17.56,11.35c-.37,0-.64.37-.59.75l.48,2.61c.06.32.27.53.59.53h2.4c.32,0,.59-.22.64-.53l.43-2.61c.05-.37-.21-.75-.59-.75h-3.36Z"/>
  <path class="cls-4" d="M17.3,14.86c-.43,0-.69.32-.64.75l.53,2.61c.05.27.32.48.59.48h2.93c.32,0,.53-.21.59-.48l.53-2.61c.05-.43-.21-.75-.59-.75h-3.94Z"/>
  <path class="cls-1" d="M17.19,18.54c-.37,0-.69.32-.59.69l.53,2.66c.05.27.32.48.59.48h3.04c.32,0,.59-.21.64-.48l.53-2.66c.06-.37-.21-.69-.64-.69h-4.1Z"/>
  <path class="cls-4" d="M17.08,22.16c-.43,0-.69.37-.59.75l.53,2.66c.05.27.32.48.59.48h3.25c.32,0,.53-.21.59-.48l.59-2.66c.05-.37-.21-.75-.59-.75h-4.37Z"/>
  <path class="cls-1" d="M16.82,25.84c-.37,0-.69.37-.59.75l.59,2.66c.1.27.32.48.64.48h3.62c.27,0,.53-.21.59-.48l.59-2.66c.11-.37-.21-.75-.59-.75h-4.85Z"/>
  <path class="cls-4" d="M16.66,29.51c-.37,0-.69.37-.59.75l.64,2.66c.06.27.32.43.59.43h3.89c.32,0,.53-.16.64-.43l.64-2.66c.06-.37-.21-.75-.64-.75h-5.17Z"/>
  <path class="cls-3" d="M28.39,8.12c-.97,0-1.97.17-2.95.51-2.02.75-4.1,1.44-6.13,2.13,2.88.32,6.29.96,10.07,2.13,3.62,1.12,6.71,2.5,9.22,3.84.01,0,.03.01.04.01.09,0,.15-.13.06-.22l-3.46-4.8c-1.68-2.34-4.19-3.6-6.86-3.6Z"/>
  <path class="cls-3" d="M29.81,0c-3.29,0-6.22,1.82-7.72,4.9-.91,1.97-1.81,3.94-2.77,5.86,2.24-1.76,5.06-3.84,8.58-5.65,3.36-1.81,6.5-2.98,9.16-3.83.11-.06.11-.22,0-.22L31.2.11c-.47-.07-.93-.11-1.39-.11Z"/>
  <path class="cls-3" d="M8.77,0c-.46,0-.92.04-1.39.11L1.52,1.07c-.1,0-.1.16,0,.22,2.66.85,5.81,2.02,9.17,3.83,3.51,1.81,6.34,3.83,8.58,5.59-.91-1.92-1.87-3.83-2.77-5.81C15,1.82,12.07,0,8.77,0Z"/>
  <path class="cls-5" d="M28.39,8.12c-.97,0-1.97.17-2.95.51-.64.21-1.23.43-1.86.64,1.65.85,3.78,1.65,6.23,2.29,2.19.53,4.26.85,5.97.91l-.53-.75c-1.68-2.34-4.19-3.6-6.86-3.6Z"/>
  <path class="cls-5" d="M29.8,0c-3.3,0-6.2,1.82-7.71,4.9-.05.1-.1.27-.16.37,1.49-.59,3.09-1.39,4.8-2.4,1.49-.91,2.88-1.87,4-2.82-.31-.03-.62-.05-.92-.05Z"/>
  <path class="cls-5" d="M10.3,8.12c-2.67,0-5.18,1.25-6.86,3.6l-.43.59c1.23-.16,2.61-.43,4.05-.75,2.77-.75,5.22-1.71,6.87-2.66l-.69-.27c-.98-.34-1.98-.51-2.95-.51Z"/>
  <path class="cls-2" d="M10.38,31.97c-.37,0-.69.27-.69.69,0,.37.32.69.69.69h17.15c.38,0,.69-.32.69-.69,0-.43-.32-.69-.69-.69H10.38Z"/>
</svg>